<?xml version="1.0" encoding="UTF-8"?>
<svg id="Ebene_1" data-name="Ebene 1" xmlns="http://www.w3.org/2000/svg" viewBox="0 0 500 500">
  <defs>
    <style>
      .cls-1 {
        fill: currentcolor;
        stroke-width: 0px;
      }
    </style>
  </defs>
  <path class="cls-1" d="M38.52,500h433.66c-7.53-13.82-16.79-26.67-27.57-38.23,7.65,2.68,15.8,5.45,24.6,8.26-24.76-78.67-160.02-168.47-204.52-196.28l-7.98-84.95c11.12-5.06,80.69-36.75,71.83-33.26,16.76-7.52,70.73-33.66,97.7-64.46-49.55-22.2-62.81-26.11-83.79-22.06-19.55,3.76-86.13,15.38-95.44,17.01-.8-.7-8.36-6.61-25.24-1.57-1.58.49-3.19.96-4.75,1.37-1.6-10.6-4.19-21.02-7.72-31.13-5.02-16.14-16.46-29.51-31.64-36.96C152.49,6.96,125.55.95,98.19.02c-9.12-.22-18.2,1.16-26.83,4.09-9.22,3.08-16.82,9.73-21.1,18.46-2.27,5.32-3.34,11.07-3.15,16.85,1.83,22.71,7.03,45.03,15.45,66.21-21.19,14.94-27.99,42.24-20.37,71.09,3.57,14.76,11.23,28.22,22.09,38.84-7.62,20.48-14.02,41.4-19.16,62.64-21.91,88.24-21.74,161.4-6.6,221.8ZM248.87,123.06l-.03-.04.08-.17,21.34-20.83-15.7,3.14.81-9.5s92.28-19.9,107.16-18.85c14.89,1.04,50.21,17.57,50.21,17.57-19.25,1.59-38.39,4.22-57.36,7.88-23.17,5.15-32.44,12.42-60.82,23.7-28.38,11.28-52.92,21.37-45.67-2.9h-.02ZM206.48,120.33c.38-.05.76-.07,1.15-.07,6.24.02,11.43,4.79,12,11,0,.38.07.74.07,1.11-.01,1.41-.28,2.8-.8,4.11h0s-16.96,6.5-16.96,6.5c-3.6-1.89-5.99-5.49-6.34-9.54-.05-.37-.07-.75-.07-1.12,0-6.23,4.75-11.43,10.95-11.98ZM131.97,185.28h-.08c-3.19,14.31-13.92,25.76-28,29.87-4.15-.36-.2-3.13-.2-3.13,8.08-8.38,14.04-18.57,17.38-29.71,2.93-12.63,4.29-25.57,4.05-38.53,0-2.45.59-4.59,2.8-.62,6.52,13.05,7.96,28.06,4.05,42.11h0ZM76.59,35.83c.08-.32.14-.64.18-.96.42-.8,1.07-1.93,4.83-3.37,5.39-1.68,11.03-2.45,16.67-2.27,23.29.97,46.22,6.12,67.69,15.2,4.93,2.35,8.97,6.21,11.54,11.03,5.31,10.22,8.81,21.28,10.36,32.69.36,1.93.66,3.8.96,5.72-18.49,4.8-36.22,12.17-52.66,21.9h0c-10.06-15.45-28.25-23.53-46.45-20.65-.68-1.93-1.33-3.86-1.93-5.79-6.05-16.03-9.91-32.8-11.46-49.85-.03-1.22.07-2.44.28-3.64Z"/>
</svg>