<?xml version="1.0" encoding="UTF-8"?>
<svg id="Ebene_1" data-name="Ebene 1" xmlns="http://www.w3.org/2000/svg" viewBox="0 0 500 500">
  <defs>
    <style>
      .cls-1 {
        fill: currentcolor;
        stroke-width: 0px;
      }
    </style>
  </defs>
  <g id="Gruppe_1204" data-name="Gruppe 1204">
    <path id="Pfad_242" data-name="Pfad 242" class="cls-1" d="M304.7,43.37c0,23.96-19.4,43.38-43.36,43.39s-43.38-19.4-43.39-43.36C217.94,19.45,237.35.02,261.31,0h0c23.96,0,43.37,19.42,43.37,43.37h0"/>
    <path id="Pfad_243" data-name="Pfad 243" class="cls-1" d="M186.64,52.76c10.93,18.95,4.43,43.17-14.51,54.1s-43.17,4.43-54.1-14.51c-10.93-18.94-4.44-43.16,14.5-54.1,18.94-10.94,43.17-4.45,54.11,14.49,0,0,0,0,0,.01"/>
    <path id="Pfad_244" data-name="Pfad 244" class="cls-1" d="M90.5,121.31c17.16,9.89,23.06,31.82,13.17,48.98-9.89,17.16-31.82,23.06-48.98,13.17-17.16-9.89-23.06-31.82-13.17-48.98,0-.01.02-.03.03-.04,9.9-17.13,31.81-23,48.95-13.13"/>
    <path id="Pfad_245" data-name="Pfad 245" class="cls-1" d="M43.37,229.24c17.71,0,32.06,14.35,32.06,32.06s-14.35,32.06-32.06,32.06-32.06-14.35-32.06-32.06c0-17.71,14.35-32.06,32.06-32.06"/>
    <path id="Pfad_246" data-name="Pfad 246" class="cls-1" d="M58.38,345.79c13.53-7.81,30.84-3.18,38.65,10.36,7.81,13.53,3.18,30.84-10.36,38.65-13.53,7.81-30.84,3.18-38.65-10.36,0,0,0,0,0-.01-7.8-13.53-3.17-30.83,10.36-38.64"/>
    <path id="Pfad_247" data-name="Pfad 247" class="cls-1" d="M131.11,437.77c6.78-11.72,21.77-15.73,33.49-8.95,11.72,6.77,15.73,21.77,8.95,33.49-6.77,11.72-21.76,15.73-33.48,8.96-11.72-6.77-15.74-21.76-8.97-33.48,0,0,0,0,0-.01"/>
    <path id="Pfad_248" data-name="Pfad 248" class="cls-1" d="M240.56,479.25c0-11.46,9.29-20.75,20.75-20.75s20.75,9.29,20.75,20.75c0,11.46-9.29,20.75-20.75,20.75s-20.75-9.29-20.75-20.75h0"/>
    <path id="Pfad_249" data-name="Pfad 249" class="cls-1" d="M355.59,458.52c-4.69-8.12-1.91-18.51,6.22-23.2,8.12-4.69,18.51-1.91,23.2,6.22,4.69,8.12,1.91,18.51-6.22,23.2h-.01c-8.12,4.69-18.5,1.9-23.18-6.22"/>
    <path id="Pfad_250" data-name="Pfad 250" class="cls-1" d="M443.46,381.72c-6.31-3.65-8.47-11.72-4.82-18.03,3.65-6.31,11.72-8.47,18.03-4.82,6.3,3.64,8.47,11.7,4.83,18.01-3.64,6.32-11.71,8.49-18.02,4.85,0,0-.01,0-.02,0"/>
    <path id="Pfad_251" data-name="Pfad 251" class="cls-1" d="M479.25,270.75c-5.21,0-9.43-4.22-9.43-9.43s4.22-9.43,9.43-9.43,9.43,4.22,9.43,9.43-4.22,9.43-9.43,9.43h0"/>
    <path id="Pfad_252" data-name="Pfad 252" class="cls-1" d="M452.88,157.24c-2.71,1.57-6.18.64-7.74-2.07-1.57-2.71-.64-6.18,2.07-7.74,2.71-1.57,6.18-.64,7.74,2.07,0,0,0,0,0,.01,1.56,2.71.62,6.17-2.08,7.73"/>
  </g>
</svg>