<?xml version="1.0" encoding="UTF-8"?>
<svg id="Ebene_1" data-name="Ebene 1" xmlns="http://www.w3.org/2000/svg" viewBox="0 0 500 500">
  <defs>
    <style>
      .cls-1 {
        fill: currentcolor;
        stroke-width: 0px;
      }
    </style>
  </defs>
  <path class="cls-1" d="M3.9,377.1c4.62,19.08,14.5,36.47,28.54,50.19-8.86,23.82-16.43,48.09-22.7,72.71h281.35l-10.08-107.27c14.37-6.54,104.23-47.48,92.79-42.97,21.65-9.75,91.36-43.49,126.21-83.27-64.02-28.67-81.14-33.74-108.24-28.5-25.25,4.85-111.27,19.88-123.29,21.99-1.03-.91-10.8-8.54-32.6-2.03-2.05.65-4.13,1.25-6.13,1.77-2.07-13.69-5.41-27.15-9.98-40.22-6.48-20.86-21.26-38.13-40.87-47.75-32.49-13.94-67.3-21.71-102.64-22.9-11.78-.29-23.51,1.5-34.67,5.29-11.91,3.98-21.72,12.57-27.25,23.84-2.93,6.87-4.32,14.3-4.07,21.76,2.36,29.34,9.09,58.16,19.95,85.52-27.37,19.29-36.16,54.58-26.31,91.84ZM270.87,307.74l.1-.23,27.54-26.9-20.28,4.05,1.05-12.27s119.21-25.7,138.43-24.36c19.22,1.34,64.85,22.74,64.85,22.74-24.86,2.05-49.58,5.45-74.07,10.17-29.93,6.66-41.9,16.05-78.57,30.61-36.67,14.57-68.37,27.6-59.01-3.74v-.03s-.03-.05-.03-.05ZM216.12,304.24c.49-.07.99-.09,1.48-.08,8.07.02,14.79,6.2,15.5,14.24,0,.49.08.96.08,1.44-.01,1.81-.36,3.61-1.02,5.3h.02l-21.92,8.38c-4.66-2.44-7.76-7.1-8.21-12.34-.07-.48-.09-.96-.08-1.45,0-8.04,6.13-14.76,14.14-15.48ZM119.85,388.16h-.08c-4.12,18.49-17.98,33.28-36.16,38.59-5.36-.46-.26-4.04-.26-4.04,10.44-10.82,18.13-23.98,22.45-38.39,3.78-16.31,5.52-33.02,5.2-49.76,0-3.17.76-5.93,3.62-.8,8.42,16.86,10.29,36.24,5.24,54.4ZM48.36,195.11c.1-.41.18-.83.23-1.25.55-1.03,1.38-2.49,6.24-4.35,6.97-2.17,14.25-3.16,21.54-2.93,30.09,1.25,59.7,7.9,87.43,19.64,6.36,3.03,11.59,8.02,14.9,14.24,6.86,13.2,11.39,27.49,13.38,42.23.46,2.49.85,4.91,1.25,7.38-23.89,6.2-46.79,15.72-68.03,28.3h-.03c-13-19.94-36.51-30.37-60.02-26.64-.87-2.49-1.7-4.99-2.5-7.48-7.82-20.71-12.79-42.39-14.79-64.44-.03-1.57.1-3.15.38-4.7Z"/>
</svg>