<?xml version="1.0" encoding="UTF-8"?>
<svg id="Ebene_1" data-name="Ebene 1" xmlns="http://www.w3.org/2000/svg" viewBox="0 0 500 500">
  <defs>
    <style>
      .cls-1 {
        fill: currentcolor;
        stroke-width: 0px;
      }
    </style>
  </defs>
  <path id="Pfad_346" data-name="Pfad 346" class="cls-1" d="M500,248.44C499.14,110.37,386.51-.86,248.44,0,110.37.87-.86,113.49,0,251.56c.76,122.37,90,226.2,210.86,245.36v-175.76h-63.41v-72.72h63.41v-55.41c0-63.04,37.33-97.83,94.44-97.83,18.75.26,37.45,1.91,55.96,4.91v61.87h-31.52c-19.86-2.5-37.98,11.58-40.48,31.43-.33,2.6-.37,5.24-.13,7.85v47.17h69.33l-11.09,72.72h-58.24v175.76c121.79-19.78,211.16-125.1,210.87-248.48"/>
</svg>