<?xml version="1.0" encoding="UTF-8"?>
<svg id="Ebene_1" data-name="Ebene 1" xmlns="http://www.w3.org/2000/svg" viewBox="0 0 500 500">
  <defs>
    <style>
      .cls-1 {
        fill: currentcolor;
        fill-rule: evenodd;
        stroke-width: 0px;
      }
    </style>
  </defs>
  <g id="Gruppe_1869" data-name="Gruppe 1869">
    <path id="Pfad_354" data-name="Pfad 354" class="cls-1" d="M220.46,293.96l76.09-43.93-76.09-43.96v87.89Z"/>
    <path id="Pfad_355" data-name="Pfad 355" class="cls-1" d="M250,0C111.93,0,0,111.93,0,250s111.93,250,250,250,250-111.93,250-250C499.93,111.96,388.04.07,250,0M386.96,318.78c-3.31,12.32-12.94,21.95-25.26,25.26-37.04,4.43-74.33,6.43-111.63,5.98-37.3.45-74.59-1.55-111.63-5.98-12.38-3.28-22.06-12.92-25.39-25.28-7.96-45.5-7.96-92.04,0-137.54,3.32-12.32,12.94-21.94,25.26-25.26,37.04-4.43,74.33-6.43,111.63-5.98,37.3-.45,74.59,1.55,111.63,5.98,12.32,3.31,21.95,12.94,25.26,25.26,7.96,45.5,7.96,92.04,0,137.54"/>
  </g>
</svg>