<?xml version="1.0" encoding="UTF-8"?>
<svg id="Ebene_1" data-name="Ebene 1" xmlns="http://www.w3.org/2000/svg" viewBox="0 0 500 500">
  <defs>
    <style>
      .cls-1 {
        fill: currentcolor;
        stroke-width: 0px;
      }
    </style>
  </defs>
  <g id="Gruppe_1873" data-name="Gruppe 1873">
    <path id="Pfad_352" data-name="Pfad 352" class="cls-1" d="M250,0C111.93,0,0,111.93,0,250s111.93,250,250,250,250-111.93,250-250C499.59,112.1,387.9.41,250,0M365,361.24c-4.02,7.14-13.06,9.66-20.19,5.65-.36-.2-.71-.42-1.05-.65-58.7-36.26-132.61-43.74-219.98-23.74-8.28,2.07-16.68-2.97-18.75-11.25-2.07-8.28,2.97-16.68,11.25-18.75h0c95-21.24,177.5-12.5,242.5,27.5,7.44,3.62,10.53,12.59,6.9,20.03-.2.41-.42.82-.66,1.21M395.02,292.5c-5.33,8.93-16.89,11.84-25.82,6.51-.15-.09-.3-.18-.45-.27-75.72-42.53-165.34-52.88-248.76-28.74-10.01,3.1-20.65-2.5-23.75-12.51-3.1-10.01,2.5-20.65,12.51-23.75,94.48-27,195.85-14.84,281.26,33.74,8.22,5.23,10.65,16.15,5.41,24.37-.14.22-.29.44-.44.65h.02ZM430.02,216.24c-7.96,9.56-21.57,12.18-32.5,6.24-80-47.48-213.74-52.48-290-28.74-12.08,3.8-24.95-2.91-28.75-14.99-3.8-12.08,2.91-24.95,14.99-28.75h0c88.76-26.24,235.02-21.26,327.5,33.76,11.21,6.69,15.07,21.08,8.7,32.48"/>
  </g>
</svg>