<?xml version="1.0" encoding="UTF-8"?>
<svg id="Ebene_1" data-name="Ebene 1" xmlns="http://www.w3.org/2000/svg" viewBox="0 0 500 500">
  <defs>
    <style>
      .cls-1 {
        fill: currentcolor;
        fill-rule: evenodd;
        stroke-width: 0px;
      }
    </style>
  </defs>
  <g id="Gruppe_1877" data-name="Gruppe 1877">
    <path id="Pfad_347" data-name="Pfad 347" class="cls-1" d="M364.2,163.61c-4.93-12.78-15.03-22.88-27.8-27.8-8.71-3.23-17.91-4.93-27.2-5.04-15.46-.7-20.09-.85-59.2-.85s-43.74.15-59.2.85c-9.29.11-18.49,1.82-27.2,5.04-12.78,4.93-22.87,15.03-27.8,27.8-3.23,8.71-4.93,17.91-5.04,27.2-.7,15.43-.85,20.09-.85,59.2s.15,43.74.85,59.2c.11,9.29,1.82,18.49,5.04,27.2,4.93,12.78,15.03,22.88,27.8,27.8,8.71,3.22,17.91,4.93,27.2,5.04,15.46.7,20.09.85,59.2.85s43.74-.15,59.2-.85c9.29-.11,18.49-1.82,27.2-5.04,12.78-4.93,22.88-15.03,27.8-27.8,3.23-8.71,4.93-17.91,5.04-27.2.7-15.46.85-20.09.85-59.2s-.15-43.74-.85-59.2c-.11-9.29-1.82-18.49-5.04-27.2M250,325.22c-41.54,0-75.22-33.68-75.22-75.22,0-41.54,33.68-75.22,75.22-75.22s75.22,33.68,75.22,75.22c0,41.54-33.68,75.22-75.22,75.22h0M328.26,189.39c-9.71,0-17.59-7.87-17.59-17.59,0-9.71,7.87-17.59,17.59-17.59s17.59,7.87,17.59,17.59v.02c-.01,9.7-7.88,17.57-17.59,17.57"/>
    <path id="Pfad_348" data-name="Pfad 348" class="cls-1" d="M250,201.17c-26.97,0-48.83,21.86-48.83,48.83s21.86,48.83,48.83,48.83,48.83-21.86,48.83-48.83-21.86-48.83-48.83-48.83h0"/>
    <path id="Pfad_349" data-name="Pfad 349" class="cls-1" d="M250,0C111.93,0,0,111.93,0,250s111.93,250,250,250,250-111.93,250-250C499.94,111.95,388.05.06,250,0M392,308.89c-.22,11.89-2.47,23.65-6.63,34.78-7.42,19.19-22.59,34.36-41.78,41.78-11.13,4.17-22.9,6.41-34.78,6.63-15.22.7-20.11.85-58.89.85s-43.67-.15-58.89-.85c-11.89-.22-23.65-2.46-34.78-6.63-19.19-7.42-34.36-22.59-41.78-41.78-4.17-11.13-6.41-22.9-6.63-34.78-.7-15.22-.87-20.11-.87-58.89s.17-43.65.87-58.89c.22-11.89,2.46-23.65,6.63-34.78,7.51-19.21,22.79-34.34,42.07-41.67,11.13-4.17,22.9-6.41,34.78-6.63,15.22-.7,20.11-.87,58.89-.87s43.65.15,58.89.87c11.89.22,23.65,2.46,34.78,6.63,19.19,7.42,34.36,22.59,41.78,41.78,4.17,11.13,6.41,22.9,6.63,34.78.7,15.22.85,20.11.85,58.89s-.15,43.65-.85,58.89"/>
  </g>
</svg>