<?xml version="1.0" encoding="UTF-8"?>
<svg id="Ebene_1" data-name="Ebene 1" xmlns="http://www.w3.org/2000/svg" viewBox="0 0 500 500">
  <defs>
    <style>
      .cls-1 {
        fill: currentcolor;
        stroke-width: 0px;
      }
    </style>
  </defs>
  <g id="Gruppe_1871" data-name="Gruppe 1871">
    <path id="Pfad_353" data-name="Pfad 353" class="cls-1" d="M250,0C111.93,0,0,111.93,0,250s111.93,250,250,250,250-111.93,250-250h0C499.59,112.1,387.9.41,250,0M286.96,342.85c-.05,21.87-3.36,43.61-9.83,64.5-2.83,9.94-8.13,19-15.41,26.33-5.31,6.99-15.27,8.36-22.27,3.05-1.22-.93-2.31-2.03-3.21-3.27-8.86-9.42-14.93-21.11-17.52-33.78-5.98-23.98-8.57-48.69-7.7-73.39.45-20.97,17.82-37.6,38.79-37.15,19.59.42,35.64,15.68,37.06,35.22.52,6.13,0,12.33,0,18.5M249,278c-21.06-.12-38.12-17.12-38.33-38.17-.17-21.25,16.92-38.61,38.17-38.78,21.25-.17,38.61,16.92,38.78,38.17.17,21.25-16.92,38.61-38.17,38.78-.15,0-.3,0-.46,0M166.76,255.09c1,21.01,9.96,40.86,25.04,55.52.58.55,1.09,1.17,1.54,1.83,0,8.7,0,17.39.33,26.09-36.46-21.65-55.51-63.78-47.7-105.46,10.45-56.47,64.69-93.78,121.16-83.33,40.36,7.46,72.55,37.97,82.17,77.87,10.51,42.82-7.68,87.54-45.09,110.87,0-1.93.06-3.85.17-5.78,0-7.04.39-14.13.2-21.17.22-.17.43-.35.63-.54,33.1-31.14,34.69-83.21,3.55-116.31-11.66-12.39-26.87-20.87-43.55-24.25-44.77-8.79-88.19,20.37-96.98,65.14-1.25,6.38-1.75,12.89-1.48,19.38M297.2,400.04c1.61-7.63,2.89-15.22,3.89-23.04,1.17-1.39,3.17-1.65,4.76-2.41,69.13-30.53,100.42-111.31,69.89-180.44-30.53-69.13-111.31-100.42-180.44-69.89-69.13,30.53-100.42,111.31-69.89,180.44,12.76,28.91,35.14,52.5,63.33,66.78,3.16,1.34,5.97,3.41,8.17,6.04.99,7.14,2.2,14.25,3.65,21.33-64.7-20.74-108.46-81.07-108.09-149.02.02-83.68,65.51-152.72,149.07-157.15,83.47-3.82,155.65,57.62,165.22,140.63,8.43,74.77-37.64,144.94-109.61,166.91"/>
  </g>
</svg>