<?xml version="1.0" encoding="UTF-8"?>
<svg id="Ebene_1" data-name="Ebene 1" xmlns="http://www.w3.org/2000/svg" viewBox="0 0 500 500">
  <defs>
    <style>
      .cls-1 {
        fill: currentcolor;
        stroke-width: 0px;
      }
    </style>
  </defs>
  <path class="cls-1" d="M495.39,473.15l-162.43-162.46c27.88-32.91,44.71-75.46,44.71-121.87C377.67,84.69,292.97-.02,188.84-.02S0,84.69,0,188.82s84.71,188.84,188.84,188.84c46.41,0,88.96-16.84,121.87-44.71l162.43,162.46c3.07,3.07,7.1,4.61,11.13,4.61s8.05-1.54,11.13-4.61c6.15-6.15,6.15-16.11,0-22.25ZM31.47,188.82C31.47,102.06,102.07,31.46,188.84,31.46s157.36,70.6,157.36,157.36-70.6,157.36-157.36,157.36S31.47,275.59,31.47,188.82Z"/>
</svg>