<?xml version="1.0" encoding="UTF-8"?>
<svg id="Ebene_1" data-name="Ebene 1" xmlns="http://www.w3.org/2000/svg" viewBox="0 0 500 500">
  <defs>
    <style>
      .cls-1 {
        fill: currentcolor;
        stroke-width: 0px;
      }
    </style>
  </defs>
  <path id="Pfad_258" data-name="Pfad 258" class="cls-1" d="M351.02,279.44c-3.91-4.57-3.38-11.45,1.19-15.36,4.08-3.49,10.1-3.49,14.18,0l26.46,26.46,107.16-107.17-54.34-52.92c-21.29,20.73-55.36,20.28-76.1-1.01-20.34-20.89-20.35-54.18,0-75.08L316.68,0l-107.17,107.17,26.46,26.46c4.55,3.94,5.03,10.83,1.09,15.37-3.94,4.55-10.83,5.03-15.37,1.09-.39-.34-.75-.7-1.08-1.08l-26.46-26.46L0,316.68l50,50.5c22.88-22.88,59.97-22.88,82.84,0,22.88,22.88,22.88,59.97,0,82.84l50.48,49.98,194.14-194.13-26.45-26.43ZM322.9,235.94c-4.25,4.22-11.11,4.22-15.36,0l-43.48-43.46c-3.91-4.57-3.38-11.45,1.19-15.36,4.08-3.49,10.1-3.49,14.18,0l43.48,43.46c4.22,4.25,4.22,11.11,0,15.36"/>
</svg>