<?xml version="1.0" encoding="UTF-8"?>
<svg id="Ebene_1" data-name="Ebene 1" xmlns="http://www.w3.org/2000/svg" viewBox="0 0 500 500">
  <defs>
    <style>
      .cls-1 {
        fill: #f61c1e;
      }

      .cls-1, .cls-2 {
        stroke-width: 0px;
      }

      .cls-2 {
        fill: #fff;
      }
    </style>
  </defs>
  <g id="Gruppe_1673" data-name="Gruppe 1673">
    <path id="Pfad_313" data-name="Pfad 313" class="cls-1" d="M489.71,129.74c-5.82-21.47-22.6-38.25-44.07-44.07-39.13-10.71-195.64-10.71-195.64-10.71,0,0-156.51,0-195.63,10.29-21.45,6.13-38.15,22.98-44.07,44.49C0,168.86,0,250,0,250c0,0,0,81.55,10.29,120.26,5.82,21.47,22.6,38.25,44.07,44.07,39.54,10.71,195.64,10.71,195.64,10.71,0,0,156.51,0,195.63-10.29,21.47-5.82,38.25-22.6,44.07-44.07,10.29-39.13,10.29-120.26,10.29-120.26,0,0,.41-81.55-10.29-120.68Z"/>
    <path id="Pfad_314" data-name="Pfad 314" class="cls-2" d="M200.16,175.04v149.91l130.16-74.96-130.16-74.96Z"/>
  </g>
</svg>